<mxfile host="app.diagrams.net" modified="2020-12-24T04:42:14.188Z" agent="5.0 (Macintosh; Intel Mac OS X 11_1_0) AppleWebKit/537.36 (KHTML, like Gecko) Chrome/87.0.4280.88 Safari/537.36" etag="EAsQUyLr_Kd3xJF6mk7c" version="14.1.2" type="github">
  <diagram id="Vi2oFbDn3ttYqndMQCn4" name="Page-1">
    <mxGraphModel dx="918" dy="693" grid="1" gridSize="10" guides="1" tooltips="1" connect="1" arrows="1" fold="1" page="1" pageScale="1" pageWidth="850" pageHeight="1100" math="0" shadow="0">
      <root>
        <mxCell id="0" />
        <mxCell id="1" parent="0" />
        <mxCell id="QRFFk8HnwYUtO8Pu8AKB-14" style="edgeStyle=orthogonalEdgeStyle;rounded=0;orthogonalLoop=1;jettySize=auto;html=1;" parent="1" source="0PtnL4p6laBrTHGzEzGk-1" edge="1">
          <mxGeometry relative="1" as="geometry">
            <mxPoint x="235" y="160" as="targetPoint" />
            <Array as="points">
              <mxPoint x="370" y="130" />
              <mxPoint x="235" y="130" />
            </Array>
          </mxGeometry>
        </mxCell>
        <mxCell id="QRFFk8HnwYUtO8Pu8AKB-15" style="edgeStyle=orthogonalEdgeStyle;rounded=0;orthogonalLoop=1;jettySize=auto;html=1;" parent="1" source="0PtnL4p6laBrTHGzEzGk-1" target="QRFFk8HnwYUtO8Pu8AKB-5" edge="1">
          <mxGeometry relative="1" as="geometry">
            <Array as="points">
              <mxPoint x="370" y="130" />
              <mxPoint x="680" y="130" />
            </Array>
          </mxGeometry>
        </mxCell>
        <mxCell id="0PtnL4p6laBrTHGzEzGk-1" value="&lt;font style=&quot;font-size: 24px&quot;&gt;init&lt;/font&gt;" style="rounded=0;whiteSpace=wrap;html=1;" parent="1" vertex="1">
          <mxGeometry x="310" y="30" width="120" height="60" as="geometry" />
        </mxCell>
        <mxCell id="QRFFk8HnwYUtO8Pu8AKB-2" value="&lt;font style=&quot;font-size: 24px&quot;&gt;clearMessages&lt;/font&gt;" style="rounded=0;whiteSpace=wrap;html=1;" parent="1" vertex="1">
          <mxGeometry x="130" y="520" width="230" height="60" as="geometry" />
        </mxCell>
        <mxCell id="QRFFk8HnwYUtO8Pu8AKB-3" value="&lt;font style=&quot;font-size: 24px&quot;&gt;clearForm&lt;/font&gt;" style="rounded=0;whiteSpace=wrap;html=1;" parent="1" vertex="1">
          <mxGeometry x="40" y="430" width="120" height="60" as="geometry" />
        </mxCell>
        <mxCell id="QRFFk8HnwYUtO8Pu8AKB-19" style="edgeStyle=orthogonalEdgeStyle;rounded=0;orthogonalLoop=1;jettySize=auto;html=1;entryX=0.559;entryY=0;entryDx=0;entryDy=0;entryPerimeter=0;" parent="1" target="QRFFk8HnwYUtO8Pu8AKB-11" edge="1">
          <mxGeometry relative="1" as="geometry">
            <mxPoint x="235.02999999999997" y="220" as="sourcePoint" />
            <mxPoint x="235" y="280" as="targetPoint" />
          </mxGeometry>
        </mxCell>
        <mxCell id="QRFFk8HnwYUtO8Pu8AKB-4" value="&lt;font style=&quot;font-size: 24px&quot;&gt;addEventHandlers&lt;/font&gt;" style="rounded=0;whiteSpace=wrap;html=1;" parent="1" vertex="1">
          <mxGeometry x="110" y="160" width="230" height="60" as="geometry" />
        </mxCell>
        <mxCell id="QRFFk8HnwYUtO8Pu8AKB-16" style="edgeStyle=orthogonalEdgeStyle;rounded=0;orthogonalLoop=1;jettySize=auto;html=1;" parent="1" source="QRFFk8HnwYUtO8Pu8AKB-5" target="QRFFk8HnwYUtO8Pu8AKB-12" edge="1">
          <mxGeometry relative="1" as="geometry" />
        </mxCell>
        <mxCell id="QRFFk8HnwYUtO8Pu8AKB-5" value="&lt;font style=&quot;font-size: 24px&quot;&gt;fetch&lt;/font&gt;" style="rounded=0;whiteSpace=wrap;html=1;" parent="1" vertex="1">
          <mxGeometry x="620" y="160" width="120" height="60" as="geometry" />
        </mxCell>
        <mxCell id="VUdY1KU8lKi-eMutf1Fu-4" style="edgeStyle=orthogonalEdgeStyle;rounded=0;orthogonalLoop=1;jettySize=auto;html=1;" edge="1" parent="1" source="QRFFk8HnwYUtO8Pu8AKB-6" target="QRFFk8HnwYUtO8Pu8AKB-5">
          <mxGeometry relative="1" as="geometry">
            <Array as="points">
              <mxPoint x="530" y="460" />
              <mxPoint x="530" y="190" />
            </Array>
          </mxGeometry>
        </mxCell>
        <mxCell id="QRFFk8HnwYUtO8Pu8AKB-6" value="&lt;font style=&quot;font-size: 24px&quot;&gt;fetchAndRender&lt;/font&gt;" style="rounded=0;whiteSpace=wrap;html=1;" parent="1" vertex="1">
          <mxGeometry x="290" y="430" width="190" height="60" as="geometry" />
        </mxCell>
        <mxCell id="VUdY1KU8lKi-eMutf1Fu-2" style="edgeStyle=orthogonalEdgeStyle;rounded=0;orthogonalLoop=1;jettySize=auto;html=1;" edge="1" parent="1">
          <mxGeometry relative="1" as="geometry">
            <mxPoint x="620" y="210" as="targetPoint" />
            <mxPoint x="550" y="520" as="sourcePoint" />
            <Array as="points">
              <mxPoint x="550" y="210" />
              <mxPoint x="620" y="210" />
            </Array>
          </mxGeometry>
        </mxCell>
        <mxCell id="QRFFk8HnwYUtO8Pu8AKB-7" value="&lt;font style=&quot;font-size: 24px&quot;&gt;send&lt;/font&gt;" style="rounded=0;whiteSpace=wrap;html=1;" parent="1" vertex="1">
          <mxGeometry x="490" y="520" width="120" height="60" as="geometry" />
        </mxCell>
        <mxCell id="QRFFk8HnwYUtO8Pu8AKB-21" style="edgeStyle=orthogonalEdgeStyle;rounded=0;orthogonalLoop=1;jettySize=auto;html=1;" parent="1" source="QRFFk8HnwYUtO8Pu8AKB-11" edge="1" target="QRFFk8HnwYUtO8Pu8AKB-6">
          <mxGeometry relative="1" as="geometry">
            <mxPoint x="310" y="430" as="targetPoint" />
          </mxGeometry>
        </mxCell>
        <mxCell id="QRFFk8HnwYUtO8Pu8AKB-23" style="edgeStyle=orthogonalEdgeStyle;rounded=0;orthogonalLoop=1;jettySize=auto;html=1;" parent="1" source="QRFFk8HnwYUtO8Pu8AKB-11" target="QRFFk8HnwYUtO8Pu8AKB-3" edge="1">
          <mxGeometry relative="1" as="geometry" />
        </mxCell>
        <mxCell id="VUdY1KU8lKi-eMutf1Fu-3" style="edgeStyle=orthogonalEdgeStyle;rounded=0;orthogonalLoop=1;jettySize=auto;html=1;" edge="1" parent="1" source="QRFFk8HnwYUtO8Pu8AKB-11" target="QRFFk8HnwYUtO8Pu8AKB-2">
          <mxGeometry relative="1" as="geometry">
            <Array as="points">
              <mxPoint x="225" y="470" />
              <mxPoint x="225" y="470" />
            </Array>
          </mxGeometry>
        </mxCell>
        <mxCell id="QRFFk8HnwYUtO8Pu8AKB-11" value="&lt;font style=&quot;font-size: 24px&quot;&gt;handleSubmit&lt;/font&gt;" style="rounded=0;whiteSpace=wrap;html=1;" parent="1" vertex="1">
          <mxGeometry x="140" y="310" width="170" height="60" as="geometry" />
        </mxCell>
        <mxCell id="QRFFk8HnwYUtO8Pu8AKB-12" value="&lt;font style=&quot;font-size: 24px&quot;&gt;renderMessage&lt;/font&gt;" style="rounded=0;whiteSpace=wrap;html=1;" parent="1" vertex="1">
          <mxGeometry x="585" y="320" width="190" height="60" as="geometry" />
        </mxCell>
        <mxCell id="QRFFk8HnwYUtO8Pu8AKB-24" value="서버로부터 가져올 때" style="text;html=1;strokeColor=none;fillColor=none;align=center;verticalAlign=middle;whiteSpace=wrap;rounded=0;" parent="1" vertex="1">
          <mxGeometry x="460" y="100" width="125" height="20" as="geometry" />
        </mxCell>
        <mxCell id="QRFFk8HnwYUtO8Pu8AKB-25" value="서버로 보낼 때" style="text;html=1;strokeColor=none;fillColor=none;align=center;verticalAlign=middle;whiteSpace=wrap;rounded=0;" parent="1" vertex="1">
          <mxGeometry x="250" y="100" width="80" height="20" as="geometry" />
        </mxCell>
      </root>
    </mxGraphModel>
  </diagram>
</mxfile>
